<svg id="svg" xmlns="http://www.w3.org/2000/svg" xmlns:xlink="http://www.w3.org/1999/xlink" width="400" height="400" viewBox="0, 0, 400,400" version="1.1"><g id="svgg"><path id="path0" d="M198.100 54.694 C 199.145 54.776,200.855 54.776,201.900 54.694 C 202.945 54.612,202.090 54.544,200.000 54.544 C 197.910 54.544,197.055 54.612,198.100 54.694 M314.200 85.600 C 315.506 86.920,316.665 88.000,316.775 88.000 C 316.885 88.000,315.906 86.920,314.600 85.600 C 313.294 84.280,312.135 83.200,312.025 83.200 C 311.915 83.200,312.894 84.280,314.200 85.600 M85.400 314.400 C 86.706 315.720,87.865 316.800,87.975 316.800 C 88.085 316.800,87.106 315.720,85.800 314.400 C 84.494 313.080,83.335 312.000,83.225 312.000 C 83.115 312.000,84.094 313.080,85.400 314.400 M198.100 345.494 C 199.145 345.576,200.855 345.576,201.900 345.494 C 202.945 345.412,202.090 345.344,200.000 345.344 C 197.910 345.344,197.055 345.412,198.100 345.494 " stroke="none" fill="#ffffff" fill-rule="evenodd"></path><path id="path1" d="M188.000 38.409 C 168.211 40.046,145.718 45.964,131.496 53.276 C 130.123 53.981,128.865 54.523,128.700 54.479 C 128.535 54.436,128.400 54.591,128.400 54.824 C 128.400 55.057,128.220 55.136,128.000 55.000 C 127.780 54.864,127.600 54.943,127.600 55.176 C 127.600 55.409,127.465 55.564,127.300 55.521 C 126.861 55.404,121.851 58.025,121.506 58.552 C 121.344 58.798,121.209 58.844,121.206 58.653 C 121.203 58.461,120.615 58.745,119.900 59.282 C 119.185 59.819,118.285 60.375,117.901 60.517 C 116.741 60.944,107.600 66.835,107.600 67.155 C 107.600 67.318,106.970 67.752,106.200 68.119 C 105.430 68.487,104.800 68.970,104.800 69.194 C 104.800 69.417,104.524 69.600,104.187 69.600 C 103.851 69.600,103.471 69.870,103.345 70.200 C 103.218 70.530,102.858 70.800,102.545 70.800 C 102.231 70.800,101.871 71.070,101.745 71.400 C 101.618 71.730,101.309 72.002,101.057 72.005 C 100.806 72.008,99.790 72.712,98.800 73.571 C 97.810 74.429,95.470 76.439,93.600 78.037 C 87.172 83.530,75.538 95.914,71.277 101.800 C 71.118 102.020,70.630 102.674,70.194 103.254 C 69.757 103.833,69.130 104.713,68.800 105.209 C 68.470 105.705,67.819 106.581,67.352 107.156 C 63.640 111.729,52.400 131.776,52.400 133.823 C 52.400 134.104,52.251 134.393,52.068 134.467 C 51.721 134.606,47.653 144.434,47.477 145.556 C 47.422 145.910,47.268 146.380,47.134 146.600 C 45.160 149.859,40.849 167.995,39.362 179.300 L 38.691 184.400 19.960 184.400 C 2.525 184.400,1.203 184.448,0.866 185.100 C -0.050 186.872,-0.051 213.135,0.865 214.900 C 1.203 215.552,2.525 215.600,19.957 215.600 L 38.686 215.600 39.389 220.900 C 42.447 243.942,50.563 266.574,62.555 285.503 C 67.287 292.972,70.560 297.389,77.600 305.805 C 82.084 311.165,93.870 322.307,101.430 328.333 C 131.763 352.512,178.748 366.007,216.000 361.239 C 217.650 361.028,219.900 360.741,221.000 360.601 C 222.100 360.461,224.080 360.167,225.400 359.947 C 226.720 359.728,228.430 359.456,229.200 359.344 C 229.970 359.231,231.770 358.869,233.200 358.540 C 234.630 358.210,236.070 357.882,236.400 357.811 C 241.043 356.816,252.583 353.402,255.600 352.132 C 255.930 351.993,256.380 351.836,256.600 351.783 C 263.103 350.217,287.917 337.009,292.796 332.517 C 293.344 332.013,294.019 331.600,294.296 331.600 C 294.573 331.600,294.800 331.432,294.800 331.227 C 294.800 331.022,295.115 330.750,295.500 330.623 C 295.885 330.496,296.769 329.899,297.464 329.296 C 298.159 328.693,299.206 327.851,299.789 327.425 C 300.373 326.999,301.176 326.369,301.573 326.025 C 301.970 325.681,303.150 324.680,304.196 323.800 C 309.912 318.990,316.470 312.621,320.614 307.856 C 321.926 306.347,323.412 304.647,323.916 304.080 C 324.420 303.512,325.320 302.432,325.916 301.679 C 326.512 300.926,327.408 299.835,327.906 299.255 C 331.031 295.614,340.800 280.778,340.800 279.671 C 340.800 279.449,340.962 279.207,341.160 279.133 C 341.357 279.060,342.054 277.920,342.707 276.600 C 343.360 275.280,344.279 273.480,344.749 272.600 C 346.076 270.116,349.461 262.714,349.779 261.600 C 349.936 261.050,350.415 259.826,350.844 258.879 C 351.699 256.992,354.618 248.627,355.198 246.400 C 355.399 245.630,356.203 242.570,356.984 239.600 C 358.595 233.473,359.635 228.090,360.633 220.700 L 361.322 215.600 379.799 215.600 C 401.422 215.600,399.425 216.103,399.652 210.600 C 399.953 203.297,399.652 186.045,399.209 185.218 C 398.778 184.412,398.497 184.400,380.035 184.400 L 361.299 184.400 360.815 180.500 C 360.378 176.970,359.549 171.804,359.002 169.200 C 358.886 168.650,358.696 167.660,358.580 167.000 C 352.496 132.562,329.786 96.483,298.573 71.667 C 281.240 57.886,253.044 44.878,233.000 41.416 C 232.340 41.302,231.350 41.113,230.800 40.997 C 229.212 40.662,223.155 39.665,221.400 39.449 C 220.520 39.341,218.900 39.149,217.800 39.022 C 216.700 38.895,214.990 38.693,214.000 38.574 C 210.695 38.174,192.255 38.057,188.000 38.409 M215.537 55.437 C 235.191 57.448,257.355 64.629,273.000 74.055 C 273.660 74.452,274.740 75.077,275.400 75.442 C 277.666 76.698,284.912 81.646,288.695 84.522 C 290.777 86.105,292.656 87.351,292.870 87.290 C 293.084 87.230,293.165 87.333,293.050 87.519 C 292.935 87.706,294.198 89.000,295.857 90.395 C 314.304 105.910,330.860 131.202,338.408 155.400 C 339.094 157.600,339.810 159.850,339.999 160.400 C 341.264 164.077,343.805 176.757,344.261 181.672 L 344.514 184.388 332.191 184.494 L 319.868 184.600 319.142 185.900 C 318.743 186.615,318.548 187.203,318.708 187.206 C 318.869 187.209,318.810 187.344,318.578 187.506 C 318.346 187.668,315.485 193.830,312.219 201.200 C 308.953 208.570,305.858 215.545,305.341 216.700 C 303.653 220.467,302.540 222.976,301.967 224.300 C 301.172 226.137,301.207 226.179,298.510 220.100 C 297.167 217.075,290.135 201.280,282.883 185.000 C 275.631 168.720,265.698 146.400,260.811 135.400 C 251.730 114.963,250.941 113.453,249.826 114.378 C 249.487 114.660,249.307 115.050,249.428 115.245 C 249.549 115.440,249.457 115.600,249.224 115.600 C 248.991 115.600,248.800 115.788,248.800 116.017 C 248.800 116.246,248.278 117.551,247.640 118.917 C 247.002 120.283,244.645 125.540,242.402 130.600 C 240.159 135.660,237.962 140.610,237.519 141.600 C 237.077 142.590,236.482 143.940,236.197 144.600 C 235.912 145.260,235.224 146.796,234.669 148.013 C 234.113 149.230,233.536 150.715,233.386 151.313 C 233.236 151.911,232.976 152.400,232.809 152.400 C 232.641 152.400,232.277 153.210,232.000 154.200 C 231.723 155.190,231.339 156.000,231.148 156.000 C 230.957 156.000,230.800 156.168,230.800 156.374 C 230.800 156.580,230.642 157.165,230.448 157.674 C 230.254 158.183,230.090 158.760,230.082 158.955 C 230.075 159.151,229.908 159.421,229.713 159.555 C 229.517 159.690,227.046 165.020,224.222 171.400 C 218.169 185.074,217.714 186.103,216.793 188.200 C 216.406 189.080,215.633 190.796,215.074 192.013 C 214.516 193.230,213.936 194.715,213.786 195.313 C 213.636 195.911,213.353 196.400,213.157 196.400 C 212.960 196.400,212.800 196.568,212.800 196.774 C 212.800 196.980,212.591 197.655,212.335 198.274 C 212.080 198.893,211.900 199.535,211.935 199.700 C 211.971 199.865,211.820 200.000,211.600 200.000 C 211.380 200.000,211.200 200.168,211.200 200.374 C 211.200 200.580,211.007 201.255,210.772 201.874 C 210.536 202.493,210.372 203.070,210.406 203.155 C 210.440 203.241,210.307 203.421,210.109 203.555 C 209.912 203.690,207.601 208.698,204.975 214.685 C 202.349 220.672,200.110 225.573,200.000 225.576 C 199.890 225.580,198.150 221.851,196.133 217.291 C 194.116 212.731,187.126 197.030,180.599 182.400 C 174.073 167.770,167.362 152.706,165.688 148.925 C 164.013 145.144,162.470 142.157,162.259 142.287 C 162.049 142.417,162.003 142.318,162.159 142.067 C 162.472 141.560,151.174 115.876,150.129 114.722 C 149.151 113.641,148.422 114.499,146.394 119.117 C 145.456 121.253,144.244 123.990,143.701 125.200 C 143.158 126.410,142.439 128.030,142.104 128.800 C 140.691 132.042,140.034 133.521,139.074 135.613 C 138.516 136.830,137.936 138.315,137.786 138.913 C 137.636 139.511,137.376 140.000,137.209 140.000 C 137.041 140.000,136.677 140.810,136.400 141.800 C 136.123 142.790,135.739 143.600,135.548 143.600 C 135.357 143.600,135.200 143.768,135.200 143.974 C 135.200 144.180,134.991 144.855,134.735 145.474 C 134.480 146.093,134.300 146.735,134.335 146.900 C 134.371 147.065,134.220 147.200,134.000 147.200 C 133.780 147.200,133.600 147.368,133.600 147.574 C 133.600 147.780,133.407 148.455,133.172 149.074 C 132.936 149.693,132.772 150.270,132.806 150.355 C 132.840 150.441,132.708 150.621,132.512 150.755 C 132.317 150.890,129.485 157.030,126.219 164.400 C 122.953 171.770,119.878 178.700,119.385 179.800 C 118.092 182.688,116.794 185.619,116.197 187.000 C 115.912 187.660,115.224 189.196,114.669 190.413 C 114.113 191.630,113.536 193.115,113.386 193.713 C 113.236 194.311,112.976 194.800,112.809 194.800 C 112.641 194.800,112.277 195.610,112.000 196.600 C 111.723 197.590,111.339 198.400,111.148 198.400 C 110.957 198.400,110.800 198.568,110.800 198.774 C 110.800 198.980,110.591 199.655,110.335 200.274 C 110.080 200.893,109.900 201.535,109.935 201.700 C 109.971 201.865,109.820 202.000,109.600 202.000 C 109.380 202.000,109.200 202.168,109.200 202.374 C 109.200 202.580,108.991 203.255,108.735 203.874 C 108.480 204.493,108.300 205.135,108.335 205.300 C 108.371 205.465,108.220 205.600,108.000 205.600 C 107.780 205.600,107.600 205.791,107.600 206.024 C 107.600 206.258,106.913 207.923,106.074 209.724 C 105.234 211.526,103.299 215.835,101.774 219.299 C 100.248 222.764,98.901 225.599,98.780 225.599 C 98.659 225.600,94.630 216.735,89.828 205.900 C 85.025 195.065,80.845 185.795,80.539 185.300 L 79.982 184.400 67.654 184.400 L 55.326 184.400 55.874 180.300 C 56.975 172.069,58.748 164.270,61.492 155.600 C 62.293 153.070,62.959 150.880,62.974 150.733 C 62.988 150.587,63.135 150.332,63.300 150.167 C 63.465 150.002,63.600 149.615,63.600 149.308 C 63.600 149.000,64.050 147.765,64.600 146.563 C 65.150 145.360,65.600 144.200,65.600 143.985 C 65.600 143.770,66.034 142.740,66.564 141.697 C 67.094 140.654,68.641 137.550,70.001 134.800 C 72.710 129.324,74.084 126.708,74.414 126.400 C 74.532 126.290,75.514 124.760,76.596 123.000 C 79.836 117.727,86.436 108.531,88.981 105.741 C 89.212 105.488,90.390 104.146,91.600 102.759 C 95.359 98.447,100.526 93.431,106.000 88.780 C 108.419 86.725,114.959 81.757,115.929 81.238 C 116.374 81.000,116.998 80.545,117.316 80.227 C 117.633 79.909,120.662 77.986,124.047 75.953 C 152.311 58.975,182.958 52.103,215.537 55.437 M183.189 249.800 C 198.206 283.552,199.182 285.600,200.254 285.600 C 200.718 285.600,202.161 283.313,202.400 282.200 C 202.447 281.980,202.853 281.080,203.302 280.200 C 203.751 279.320,204.073 278.600,204.018 278.600 C 203.882 278.600,205.112 275.803,208.152 269.200 C 208.911 267.550,209.908 265.345,210.366 264.300 C 210.825 263.255,211.560 261.590,212.000 260.600 C 212.440 259.610,213.160 257.990,213.600 257.000 C 215.470 252.792,216.118 251.322,216.684 250.000 C 217.309 248.541,218.204 246.522,219.656 243.300 C 220.127 242.255,220.876 240.590,221.319 239.600 C 221.763 238.610,222.280 237.484,222.467 237.099 C 223.315 235.356,226.483 228.159,226.560 227.800 C 226.607 227.580,227.067 226.590,227.582 225.600 C 228.097 224.610,228.516 223.710,228.513 223.600 C 228.506 223.305,229.608 220.794,232.552 214.400 C 233.311 212.750,234.328 210.500,234.812 209.400 C 235.296 208.300,236.031 206.635,236.446 205.700 C 236.860 204.765,237.540 203.235,237.954 202.300 C 238.369 201.365,239.089 199.745,239.554 198.700 C 241.333 194.703,242.105 192.953,242.684 191.600 C 243.256 190.265,243.906 188.813,245.731 184.800 C 246.181 183.810,246.871 182.280,247.264 181.400 C 247.656 180.520,248.570 178.500,249.295 176.912 L 250.612 174.024 253.667 180.912 C 255.347 184.700,264.945 206.250,274.995 228.800 C 285.045 251.350,294.808 273.280,296.690 277.534 C 301.311 287.977,301.091 287.968,305.557 277.900 C 306.021 276.855,306.780 275.145,307.246 274.100 C 307.711 273.055,308.410 271.480,308.800 270.600 C 309.190 269.720,309.908 268.100,310.397 267.000 C 310.885 265.900,311.554 264.370,311.884 263.600 C 312.509 262.141,313.404 260.122,314.856 256.900 C 315.327 255.855,316.076 254.190,316.519 253.200 C 316.963 252.210,317.478 251.087,317.664 250.704 C 318.543 248.894,323.284 238.153,323.360 237.800 C 323.407 237.580,323.867 236.590,324.382 235.600 C 324.897 234.610,325.316 233.710,325.313 233.600 C 325.308 233.371,325.993 231.797,327.840 227.800 C 328.551 226.260,329.508 224.145,329.966 223.100 C 330.425 222.055,331.164 220.391,331.609 219.401 C 332.055 218.412,332.590 217.152,332.800 216.601 L 333.180 215.600 338.845 215.600 L 344.510 215.600 344.241 218.230 C 343.522 225.245,341.138 236.093,338.569 244.042 C 337.763 246.535,337.063 248.760,337.013 248.987 C 336.964 249.214,336.732 249.850,336.498 250.400 C 336.264 250.950,335.439 253.047,334.665 255.060 C 333.890 257.073,333.071 259.053,332.843 259.460 C 332.616 259.867,331.523 262.090,330.414 264.400 C 326.605 272.332,322.514 279.000,316.058 287.800 C 314.605 289.780,313.323 291.490,313.208 291.600 C 313.093 291.710,311.442 293.600,309.540 295.800 C 304.301 301.860,295.912 309.855,290.200 314.231 C 288.880 315.242,287.740 316.234,287.667 316.435 C 287.593 316.636,287.370 316.800,287.171 316.800 C 286.972 316.800,285.322 317.848,283.505 319.128 C 281.687 320.409,278.760 322.337,277.000 323.414 C 275.240 324.490,273.710 325.468,273.600 325.586 C 273.203 326.012,262.112 331.578,258.400 333.215 C 210.534 354.318,153.513 347.592,111.913 315.935 C 82.432 293.499,62.822 261.000,56.604 224.268 C 56.052 221.006,55.600 217.721,55.600 216.968 L 55.600 215.600 61.151 215.600 L 66.702 215.600 69.608 222.100 C 71.206 225.675,78.158 241.290,85.057 256.800 C 91.956 272.310,97.903 285.224,98.272 285.497 C 98.951 285.999,100.400 285.207,100.400 284.334 C 100.400 283.979,101.134 282.271,104.456 274.900 C 104.927 273.855,105.676 272.190,106.119 271.200 C 106.563 270.210,107.080 269.084,107.267 268.699 C 108.115 266.956,111.283 259.759,111.360 259.400 C 111.407 259.180,111.867 258.190,112.382 257.200 C 112.897 256.210,113.316 255.310,113.313 255.200 C 113.306 254.905,114.408 252.394,117.352 246.000 C 118.111 244.350,119.087 242.190,119.521 241.200 C 119.954 240.210,120.689 238.545,121.154 237.500 C 122.231 235.081,123.394 232.464,124.354 230.300 C 124.769 229.365,125.508 227.700,125.997 226.600 C 126.485 225.500,127.154 223.970,127.484 223.200 C 127.813 222.430,128.450 220.990,128.898 220.000 C 129.346 219.010,130.033 217.480,130.425 216.600 C 132.217 212.577,132.951 210.949,133.267 210.299 C 134.115 208.556,137.283 201.359,137.360 201.000 C 137.407 200.780,137.867 199.790,138.382 198.800 C 138.897 197.810,139.273 197.000,139.218 197.000 C 139.082 197.000,140.312 194.203,143.352 187.600 C 144.111 185.950,145.108 183.745,145.566 182.700 C 147.491 178.313,148.106 176.939,148.638 175.839 C 148.947 175.200,149.203 174.390,149.207 174.039 C 149.210 173.687,153.414 182.850,158.548 194.400 C 163.683 205.950,174.771 230.880,183.189 249.800 " stroke="none" fill="#ffffff" fill-rule="evenodd"></path></g></svg>