<svg id="svg" version="1.1" xmlns="http://www.w3.org/2000/svg" xmlns:xlink="http://www.w3.org/1999/xlink" width="400" height="73.81974248927038" viewBox="0, 0, 400,73.81974248927038"><g id="svgg"><path id="path0" d="M0.000 4.750 L 0.000 9.500 57.083 9.500 L 114.167 9.500 114.167 20.583 L 114.167 31.667 57.083 31.667 L 0.000 31.667 0.000 52.667 L 0.000 73.667 4.750 73.667 L 9.500 73.667 9.500 57.834 L 9.500 42.000 66.958 41.959 L 124.417 41.917 124.459 20.958 L 124.501 0.000 62.251 0.000 L 0.000 0.000 0.000 4.750 M186.333 32.167 L 186.333 64.333 158.000 64.333 L 129.667 64.333 129.667 69.000 L 129.667 73.667 164.000 73.667 L 198.333 73.667 198.333 41.584 L 198.333 9.501 226.625 9.459 L 254.917 9.417 254.961 4.708 L 255.005 0.000 220.669 0.000 L 186.333 0.000 186.333 32.167 M121.543 2.090 L 122.000 2.513 122.000 20.583 L 122.000 38.652 121.576 39.076 L 121.152 39.500 64.435 39.500 C 9.300 39.500,7.708 39.509,7.359 39.811 L 7.000 40.122 7.000 55.622 C 7.000 74.062,7.330 72.000,4.382 72.000 C 2.530 72.000,2.440 71.983,2.061 71.575 L 1.667 71.149 1.667 53.167 L 1.667 35.184 2.061 34.759 L 2.455 34.333 59.242 34.333 L 116.030 34.333 116.343 33.958 C 116.799 33.411,116.845 7.807,116.391 7.305 C 116.125 7.011,114.132 7.000,59.358 7.000 L 2.602 7.000 2.134 6.552 C 1.428 5.876,1.415 2.864,2.115 2.134 L 2.562 1.667 61.825 1.667 L 121.087 1.667 121.543 2.090 M252.043 2.090 C 252.748 2.743,252.748 5.923,252.043 6.577 L 251.587 7.000 223.969 7.000 L 196.352 7.000 196.093 7.370 C 195.860 7.703,195.833 11.019,195.833 39.431 L 195.833 71.122 195.488 71.561 L 195.142 72.000 164.000 72.000 L 132.858 72.000 132.512 71.561 C 131.954 70.851,131.998 67.820,132.576 67.242 L 132.985 66.833 160.523 66.833 L 188.062 66.833 188.448 66.471 L 188.833 66.109 188.833 34.311 L 188.833 2.513 189.290 2.090 L 189.747 1.667 220.667 1.667 L 251.587 1.667 252.043 2.090 " stroke="none" fill="#2c8cb4" fill-rule="evenodd"></path><path id="path1" d="M260.206 4.708 L 260.250 9.417 317.708 9.459 L 375.167 9.500 375.167 20.584 L 375.167 31.667 317.667 31.667 L 260.167 31.667 260.167 52.667 L 260.167 73.667 265.250 73.667 L 270.333 73.667 270.333 57.833 L 270.333 42.000 327.833 42.000 L 385.333 42.000 385.333 21.000 L 385.333 0.000 322.747 0.000 L 260.161 0.000 260.206 4.708 M390.500 4.550 C 390.500 7.867,390.554 9.154,390.700 9.300 C 390.846 9.446,392.133 9.500,395.450 9.500 L 400.000 9.500 400.000 4.750 L 400.000 0.000 395.250 0.000 L 390.500 0.000 390.500 4.550 M382.487 2.098 L 383.000 2.530 383.000 20.583 L 383.000 38.637 382.487 39.069 L 381.974 39.500 325.249 39.500 C 273.903 39.500,268.499 39.525,268.262 39.762 C 268.028 39.996,268.000 41.661,268.000 55.587 L 268.000 71.149 267.606 71.575 C 266.988 72.241,263.539 72.231,263.012 71.561 C 262.467 70.867,262.467 35.466,263.012 34.772 L 263.358 34.333 320.147 34.333 L 376.937 34.333 377.302 33.994 L 377.667 33.654 377.667 20.697 C 377.667 9.240,377.637 7.698,377.407 7.370 L 377.148 7.000 320.364 7.000 L 263.580 7.000 263.123 6.577 C 262.679 6.165,262.667 6.103,262.667 4.333 C 262.667 2.564,262.679 2.502,263.123 2.090 L 263.580 1.667 322.777 1.667 L 381.974 1.667 382.487 2.098 M397.849 2.011 L 398.333 2.356 398.333 4.333 L 398.333 6.311 397.849 6.655 C 397.137 7.162,394.363 7.162,393.651 6.655 L 393.167 6.311 393.167 4.336 C 393.167 2.376,393.170 2.359,393.625 2.019 C 394.305 1.512,397.140 1.507,397.849 2.011 M390.611 16.444 C 390.550 16.506,390.500 29.406,390.500 45.111 L 390.500 73.667 395.250 73.667 L 400.000 73.667 400.000 45.000 L 400.000 16.333 395.361 16.333 C 392.810 16.333,390.672 16.383,390.611 16.444 M397.894 19.179 L 398.333 19.524 398.333 45.444 L 398.333 71.363 397.958 71.676 C 397.404 72.139,394.096 72.139,393.542 71.676 L 393.167 71.363 393.167 45.444 L 393.167 19.524 393.606 19.179 C 393.985 18.880,394.277 18.833,395.750 18.833 C 397.223 18.833,397.515 18.880,397.894 19.179 " stroke="none" fill="#ec1c24" fill-rule="evenodd"></path><path id="path2" d="M2.115 2.134 C 1.415 2.864,1.428 5.876,2.134 6.552 L 2.602 7.000 59.358 7.000 C 114.132 7.000,116.125 7.011,116.391 7.305 C 116.845 7.807,116.799 33.411,116.343 33.958 L 116.030 34.333 59.242 34.333 L 2.455 34.333 2.061 34.759 L 1.667 35.184 1.667 53.167 L 1.667 71.149 2.061 71.575 C 2.440 71.983,2.530 72.000,4.382 72.000 C 7.330 72.000,7.000 74.062,7.000 55.622 L 7.000 40.122 7.359 39.811 C 7.708 39.509,9.300 39.500,64.435 39.500 L 121.152 39.500 121.576 39.076 L 122.000 38.652 122.000 20.583 L 122.000 2.513 121.543 2.090 L 121.087 1.667 61.825 1.667 L 2.562 1.667 2.115 2.134 M189.290 2.090 L 188.833 2.513 188.833 34.311 L 188.833 66.109 188.448 66.471 L 188.062 66.833 160.523 66.833 L 132.985 66.833 132.576 67.242 C 131.998 67.820,131.954 70.851,132.512 71.561 L 132.858 72.000 164.000 72.000 L 195.142 72.000 195.488 71.561 L 195.833 71.122 195.833 39.431 C 195.833 11.019,195.860 7.703,196.093 7.370 L 196.352 7.000 223.969 7.000 L 251.587 7.000 252.043 6.577 C 252.748 5.923,252.748 2.743,252.043 2.090 L 251.587 1.667 220.667 1.667 L 189.747 1.667 189.290 2.090 M263.123 2.090 C 262.679 2.502,262.667 2.564,262.667 4.333 C 262.667 6.103,262.679 6.165,263.123 6.577 L 263.580 7.000 320.364 7.000 L 377.148 7.000 377.407 7.370 C 377.637 7.698,377.667 9.240,377.667 20.697 L 377.667 33.654 377.302 33.994 L 376.937 34.333 320.147 34.333 L 263.358 34.333 263.012 34.772 C 262.467 35.466,262.467 70.867,263.012 71.561 C 263.539 72.231,266.988 72.241,267.606 71.575 L 268.000 71.149 268.000 55.587 C 268.000 41.661,268.028 39.996,268.262 39.762 C 268.499 39.525,273.903 39.500,325.249 39.500 L 381.974 39.500 382.487 39.069 L 383.000 38.637 383.000 20.583 L 383.000 2.530 382.487 2.098 L 381.974 1.667 322.777 1.667 L 263.580 1.667 263.123 2.090 M393.625 2.019 C 393.170 2.359,393.167 2.376,393.167 4.336 L 393.167 6.311 393.651 6.655 C 394.363 7.162,397.137 7.162,397.849 6.655 L 398.333 6.311 398.333 4.333 L 398.333 2.356 397.849 2.011 C 397.140 1.507,394.305 1.512,393.625 2.019 M393.606 19.179 L 393.167 19.524 393.167 45.444 L 393.167 71.363 393.542 71.676 C 394.096 72.139,397.404 72.139,397.958 71.676 L 398.333 71.363 398.333 45.444 L 398.333 19.524 397.894 19.179 C 397.515 18.880,397.223 18.833,395.750 18.833 C 394.277 18.833,393.985 18.880,393.606 19.179 " stroke="none" fill="#040404" fill-rule="evenodd"></path></g></svg>