/* XPM */
static char * surfacetest_xpm[] = {
"32 32 6 1",
" 	c None",
".	c #FF0000",
"+	c #00FF00",
"@	c #0000FF",
"#	c #FFFFFF",
"$	c #000000",
"........++++++++@@@@@@@@########",
"........++++++++@@@@@@@@########",
"........++++++++@@@@@@@@########",
"........++++++++@@@@@@@@########",
"........++++++++@@@@@@@@########",
"........++++++++@@@@@@@@########",
"........++++++++@@@@@@@@########",
"........++++++++@@@@@@@@########",
"........++++++++@@@@@@@@########",
"........++++++++@@@@@@@@########",
"........++++++++@@@@@@@@########",
"........++++++++@@@@@@@@########",
"........++++++++@@@@@@@@########",
"........++++++++@@@@@@@@########",
"........++++++++@@@@@@@@########",
"........++++++++@@@@@@@@########",
"........++++++++@@@@@@@@$$$$$$$$",
"........++++++++@@@@@@@@$$$$$$$$",
"........++++++++@@@@@@@@$$$$$$$$",
"........++++++++@@@@@@@@$$$$$$$$",
"........++++++++@@@@@@@@$$$$$$$$",
"........++++++++@@@@@@@@$$$$$$$$",
"........++++++++@@@@@@@@$$$$$$$$",
"........++++++++@@@@@@@@$$$$$$$$",
"........++++++++@@@@@@@@$$$$$$$$",
"........++++++++@@@@@@@@$$$$$$$$",
"........++++++++@@@@@@@@$$$$$$$$",
"........++++++++@@@@@@@@$$$$$$$$",
"........++++++++@@@@@@@@$$$$$$$$",
"........++++++++@@@@@@@@$$$$$$$$",
"........++++++++@@@@@@@@$$$$$$$$",
"........++++++++@@@@@@@@$$$$$$$$"};
